<?xml version="1.0" encoding="utf-8"?>
<?xml-stylesheet type="text/xsl" href="rss1.xsl"?>
<rss version="2.0" xmlns:atom="http://www.w3.org/2005/Atom" xmlns:content="http://purl.org/rss/1.0/modules/content/" xmlns:dc="http://purl.org/dc/elements/1.1/" xmlns:media="http://search.yahoo.com/mrss/">
<channel>
 <title>Getty</title>
 <link>http://www.gettyimg.com/</link>
 <atom:link href="http://www.gettyimg.com/" rel="self" type="application/rss+xml" />

 
                <item>
                <title><![CDATA[【UPSCALED】Elton John - This Train Don't Stop There Anymore (1080p PCM)]]></title>
                <link><![CDATA[https://sharemania.us/threads/elton-john-this-train-dont-stop-there-anymore-1080p-pcm.223376/]]></link>
                <description><![CDATA[<article>
<blockquote class="messageText SelectQuoteContainer ugc baseHtml">
<img src="https://images2.imgbox.com/59/9c/qAdfXLk4_o.jpg" class="bbCodeImage LbImage" alt="[​IMG]" data-url="https://images2.imgbox.com/59/9c/qAdfXLk4_o.jpg" style=""> <br>
<br>
<div class="bbCodeBlock bbCodeVfcHH HiddenContent">
<div class="attribution type">Hidden Content:</div>
<blockquote>You must either reply or click 'Like' to see the hidden information contained here.</blockquote>
</div>"This Train Don't Stop There Anymore" is the final track on Elton John's 2001 album Songs from the West Coast. Written by John and Bernie Taupin, the song's lyrics details John's fame being over and his coming to terms with getting older but still keep touring and giving great performances around the world.<br>
The music video, directed by David LaChapelle with Pierre Rouger as cinematographer, presents a younger John played by Justin Timberlake dressed in outfits typical of John in the 1970s; the video also features Paul Reubens of Pee-Wee Herman fame as John Reid, John's manager of 25 years.<br>
<br>
<b><span style="color: #ff0000">Video ripped from the DVD of Elton John – One Night Only - Greatest Hits using MakeMKV; split into chapters with Music Media Helper; enhanced and upscaled with Topaz Video Enhance AI; re-encoded with Handbrake; synced to the EAC Flac from the Songs from the West Coast CD using Adobe Audition; multiplexed audio to video with MKVToolNix.</span><br>
<br>
<div class="ToggleTriggerAnchor bbCodeSpoilerContainer">
<button type="button" class="button bbCodeSpoilerButton ToggleTrigger Tooltip JsOnly" data-target="> .SpoilerTarget"><span>Spoiler: <span class="SpoilerTitle">media info</span></span></button>
<div class="SpoilerTarget bbCodeSpoilerText">General<br>
Format : Matroska<br>
Format version : Version 4<br>
File size : 381 MiB<br>
Duration : 4 min 49 s<br>
Overall bit rate : 11.0 Mb/s<br>
Frame rate : 59.698 FPS<br>
Encoded date : 2023-06-25 14:07:56 UTC<br>
Writing application : mkvmerge v77.0 ('Elemental') 64-bit<br>
Writing library : libebml v1.4.4 + libmatroska v1.7.1 / Lavf58.76.100<br>
Video<br>
ID : 1<br>
Format : HEVC<br>
Format/Info : High Efficiency Video Coding<br>
Format profile : Main 10@L4.1@Main<br>
Codec ID : V_MPEGH/ISO/HEVC<br>
Duration : 4 min 48 s<br>
Bit rate : 7 727 kb/s<br>
Width : 1 324 pixels<br>
Height : 1 080 pixels<br>
Display aspect ratio : 4:3<br>
Original display aspect ratio : 4:3<br>
Frame rate mode : Variable<br>
Frame rate : 59.698 FPS<br>
Original frame rate : 60.000 FPS<br>
Color space : YUV<br>
Chroma subsampling : 4:2:0 (Type 0)<br>
Bit depth : 10 bits<br>
Bits/(Pixel*Frame) : 0.091<br>
Stream size : 266 MiB (70%)<br>
Writing library : x265 3.5+1-f0c1022b6:[Windows][GCC 10.2.0][64 bit] 10bit<br>
Default : Yes<br>
Forced : No<br>
Color range : Limited<br>
Color primaries : BT.709<br>
Transfer characteristics : BT.709<br>
Matrix coefficients : BT.709<br>
Audio #1<br>
ID : 2<br>
Format : PCM<br>
Format settings : Little<br>
Codec ID : A_PCM/FLOAT/IEEE<br>
Duration : 4 min 49 s<br>
Bit rate mode : Constant<br>
Bit rate : 3 072 kb/s<br>
Channel(s) : 2 channels<br>
Sampling rate : 48.0 kHz<br>
Frame rate : 25.002 FPS (1920 SPF)<br>
Bit depth : 32 bits<br>
Stream size : 106 MiB (28%)<br>
Title : Stereo<br>
Default : Yes<br>
Forced : No<br>
Audio #2<br>
ID : 3<br>
Format : AC-3<br>
Format/Info : Audio Coding 3<br>
Commercial name : Dolby Digital<br>
Codec ID : A_AC3<br>
Duration : 4 min 49 s<br>
Bit rate mode : Constant<br>
Bit rate : 256 kb/s<br>
Channel(s) : 2 channels<br>
Channel layout : L R<br>
Sampling rate : 48.0 kHz<br>
Frame rate : 31.250 FPS (1536 SPF)<br>
Compression mode : Lossy<br>
Stream size : 8.82 MiB (2%)<br>
Title : Stereo<br>
Language : English<br>
Service kind : Complete Main<br>
Default : No<br>
Forced : No<br>
<b><b>[/CODE]</b></b></div>
</div></b>
<div class="messageTextEndMarker">&nbsp;</div>
</blockquote>
</article>]]></description>
                <author><![CDATA[radsen]]></author>
                </item>

                
                <item>
                <title><![CDATA[【Apple Music】WEB-RiP - Delia - Da, mama (1080p)]]></title>
                <link><![CDATA[https://sharemania.us/threads/delia-da-mama-1080p.223375/]]></link>
                <description><![CDATA[<article>
<blockquote class="messageText SelectQuoteContainer ugc baseHtml">
<img src="https://i.imgur.com/KX7KF7f.jpg" class="bbCodeImage LbImage" alt="[​IMG]" data-url="https://i.imgur.com/KX7KF7f.jpg" style=""><br>
<br>
<div class="bbCodeBlock bbCodeCode">
<div class="type">Code:</div>
<pre>General
Complete name                  : C:\Users\asus\Desktop\Delia - Da, mama.mp4
Format                         : MPEG-4
Format profile                 : Base Media
Codec ID                       : isom (isom/iso2/avc1/mp41)
File size                      : 291 MiB
Duration                       : 4 min 3 s
Overall bit rate               : 10.0 Mb/s
Frame rate                     : 25.000 FPS
Movie name                     : Da, mama
Performer                      : Delia
Genre                          : Pop
ContentType                    : Music Video
Recorded date                  : 2021-09-10 07:00:00 UTC
Writing application            : Lavf57.29.101
Copyright                      : ℗ 2015 Cat Music / Global Records

Video
ID                             : 1
Format                         : AVC
Format/Info                    : Advanced Video Codec
Format profile                 : High@L4
Format settings                : CABAC / 5 Ref Frames
Format settings, CABAC         : Yes
Format settings, Reference fra : 5 frames
Codec ID                       : avc1
Codec ID/Info                  : Advanced Video Coding
Duration                       : 4 min 3 s
Bit rate                       : 9 732 kb/s
Width                          : 1 920 pixels
Height                         : 816 pixels
Display aspect ratio           : 2.35:1
Frame rate mode                : Constant
Frame rate                     : 25.000 FPS
Color space                    : YUV
Chroma subsampling             : 4:2:0
Bit depth                      : 8 bits
Scan type                      : Progressive
Bits/(Pixel*Frame)             : 0.248
Stream size                    : 283 MiB (97%)
Color range                    : Limited
Color primaries                : BT.709
Transfer characteristics       : BT.709
Matrix coefficients            : BT.709
Codec configuration box        : avcC

Audio
ID                             : 2
Format                         : AAC LC
Format/Info                    : Advanced Audio Codec Low Complexity
Codec ID                       : mp4a-40-2
Duration                       : 4 min 3 s
Bit rate mode                  : Constant
Bit rate                       : 265 kb/s
Channel(s)                     : 2 channels
Channel layout                 : L R
Sampling rate                  : 48.0 kHz
Frame rate                     : 46.875 FPS (1024 SPF)
Compression mode               : Lossy
Stream size                    : 7.80 MiB (3%)
Default                        : Yes
Alternate group                : 1

</pre>
</div>
<div class="bbCodeBlock bbCodeVfcHH HiddenContent">
<div class="attribution type">Hidden Content:</div>
<blockquote>You must either reply or click 'Like' to see the hidden information contained here.</blockquote>
</div>
<div class="messageTextEndMarker">&nbsp;</div>
</blockquote>
</article>]]></description>
                <author><![CDATA[vitalya3]]></author>
                </item>

                </channel></rss>